<svg width="688" height="589" viewBox="0 0 688 589" fill="none" xmlns="http://www.w3.org/2000/svg">
<path d="M328.199 484.171L328.193 484.18C324.897 488.724 323.114 493.792 323.114 499.366L322.616 574.824V574.828C322.616 585.833 310.115 592.31 300.969 585.837L300.968 585.836C258.481 555.936 194.57 506.932 136.457 446.612C78.3357 386.285 26.0579 314.684 6.77095 239.594C-7.77706 182.885 2.98313 116.518 39.0929 68.1194C75.1811 19.75 136.622 -10.7172 223.567 4.39411C266.053 11.8162 306.814 41.7686 324.938 69.9526L324.943 69.9602L324.948 69.9675C326.032 71.527 327.631 75.132 328.977 78.4052C329.645 80.0299 330.244 81.5545 330.675 82.6731C330.891 83.2323 331.065 83.6898 331.185 84.0074C331.245 84.1662 331.291 84.2899 331.322 84.3739L331.358 84.4695L331.367 84.4937L331.369 84.4998L331.37 84.5013L331.37 84.5017L331.38 84.5279L331.392 84.5529C331.495 84.756 331.547 84.907 331.607 85.0827L331.614 85.1049L331.616 85.1095C331.676 85.2922 331.745 85.4997 331.878 85.7686L366.02 177.089C368.955 185.128 367.726 194.124 362.363 200.678L362.357 200.685L346.918 220.273C346.656 220.539 346.396 220.862 346.16 221.157L346.157 221.161C345.902 221.478 345.673 221.763 345.447 221.987L345.438 221.996L303.558 265.684L303.555 265.687C295.932 273.789 294.402 285.691 299.745 295.316L364.306 412.974L364.309 412.978C368.947 421.245 368.213 431.702 362.355 439.237L362.352 439.242L328.199 484.171Z" fill="white" stroke="white"/>
<path d="M366.644 57.3199L366.644 57.3198L366.644 57.3197L366.644 57.3195L366.645 57.3194L366.668 57.3005L366.689 57.2784C389.581 33.3119 420.241 11.3517 460.18 4.44372C548.355 -10.7527 610.612 19.5761 647.229 67.7884C683.867 116.029 694.873 182.221 680.414 238.779C660.785 314.413 607.169 386.444 547.769 446.954C488.376 507.456 423.247 556.394 380.663 585.846L380.661 585.848C371.407 592.306 358.763 585.843 358.762 574.624C358.762 574.623 358.762 574.622 358.762 574.622L359.267 514.959V514.955C359.267 509.618 360.996 504.527 364.202 500.409L364.203 500.407L408.31 443.22C408.31 443.219 408.311 443.219 408.312 443.218C414.489 435.38 415.256 424.764 410.372 415.93L410.371 415.929L347.104 302.042L347.103 302.04C341.918 292.823 343.401 281.183 350.805 273.669L350.808 273.665L369.202 254.609C369.203 254.608 369.204 254.607 369.206 254.605C369.473 254.34 369.738 254.016 369.983 253.717L369.993 253.704L369.994 253.703C370.248 253.39 370.483 253.103 370.711 252.879L370.732 252.859L370.75 252.836L405.536 209.757L405.539 209.753C410.94 202.932 412.481 193.586 409.394 185.254L409.393 185.25L364.528 66.6592L364.489 66.5561L364.431 66.4993C364.426 66.4912 364.418 66.4767 364.407 66.4538C364.38 66.3958 364.347 66.3112 364.309 66.1996C364.233 65.9777 364.151 65.6789 364.076 65.3355C363.923 64.6458 363.804 63.8174 363.804 63.1225C363.804 61.4029 364.505 59.9545 365.226 58.9212C365.585 58.4065 365.944 58.002 366.213 57.7273C366.347 57.5901 366.457 57.4859 366.533 57.4171C366.571 57.3827 366.6 57.3572 366.619 57.3409L366.64 57.3234L366.644 57.3199Z" fill="white" stroke="white"/>
</svg>
