<svg width="688" height="635" viewBox="0 0 688 635" fill="none" xmlns="http://www.w3.org/2000/svg">
<path d="M343.534 634.182C332.926 634.169 322.568 630.964 313.807 624.983C184.014 536.875 127.813 476.463 96.8137 438.692C30.7531 358.181 -0.87348 275.523 0.0183387 186.01C1.05879 83.4346 83.3539 0 183.469 0C256.268 0 306.688 41.0072 336.052 75.1605C336.983 76.2315 338.132 77.0903 339.423 77.6789C340.713 78.2674 342.115 78.572 343.534 78.572C344.952 78.572 346.354 78.2674 347.645 77.6789C348.936 77.0903 350.085 76.2315 351.015 75.1605C380.379 40.9741 430.8 0 503.599 0C603.714 0 686.009 83.4346 687.049 186.027C687.941 275.556 656.282 358.214 590.254 438.709C559.255 476.479 503.054 536.892 373.261 625C364.498 630.974 354.14 634.174 343.534 634.182Z" fill="#B94343"/>
</svg>
