<svg width="369" height="589" viewBox="0 0 369 589" fill="none" xmlns="http://www.w3.org/2000/svg">
<path d="M328.199 484.171L328.193 484.18C324.897 488.724 323.114 493.792 323.114 499.366L322.616 574.824V574.828C322.616 585.833 310.115 592.31 300.969 585.837L300.968 585.836C258.481 555.936 194.57 506.932 136.457 446.612C78.3357 386.285 26.0579 314.684 6.77095 239.594C-7.77706 182.885 2.98313 116.518 39.0929 68.1194C75.1811 19.75 136.622 -10.7172 223.567 4.39411C266.053 11.8162 306.814 41.7686 324.938 69.9526L324.943 69.9602L324.948 69.9675C326.032 71.527 327.631 75.132 328.977 78.4052C329.645 80.0299 330.244 81.5545 330.675 82.6731C330.891 83.2323 331.065 83.6898 331.185 84.0074C331.245 84.1662 331.291 84.2899 331.322 84.3739L331.358 84.4695L331.367 84.4937L331.369 84.4998L331.37 84.5013L331.37 84.5017L331.38 84.5279L331.392 84.5529C331.495 84.756 331.547 84.907 331.607 85.0827L331.614 85.1049L331.616 85.1095C331.676 85.2922 331.745 85.4997 331.878 85.7686L366.02 177.089C368.955 185.128 367.726 194.124 362.363 200.678L362.357 200.685L346.918 220.273C346.656 220.539 346.396 220.862 346.16 221.157L346.157 221.161C345.902 221.478 345.673 221.763 345.447 221.987L345.438 221.996L303.558 265.684L303.555 265.687C295.932 273.789 294.402 285.691 299.745 295.316L364.306 412.974L364.309 412.978C368.947 421.245 368.213 431.702 362.355 439.237L362.352 439.242L328.199 484.171Z" fill="white" stroke="white"/>
</svg>
