<svg width="345" height="589" viewBox="0 0 345 589" fill="none" xmlns="http://www.w3.org/2000/svg">
<path d="M23.6441 57.3199L23.6441 57.3199L23.6443 57.3197L23.6445 57.3195L23.6446 57.3194L23.6677 57.3005L23.6888 57.2784C46.5805 33.312 77.2407 11.3518 117.18 4.44377C205.355 -10.7528 267.612 19.576 304.229 67.7884C340.868 116.029 351.873 182.221 337.414 238.779C317.785 314.413 264.169 386.444 204.769 446.954C145.376 507.456 80.2469 556.394 37.6627 585.846L37.6609 585.848C28.4066 592.306 15.7632 585.843 15.7616 574.624C15.7616 574.623 15.7616 574.622 15.7616 574.622L16.2671 514.959V514.955C16.2671 509.618 17.9958 504.527 21.2018 500.409L21.2031 500.407L65.3096 443.22C65.3102 443.219 65.3109 443.219 65.3115 443.218C71.4888 435.38 72.2556 424.764 67.3716 415.93L67.3711 415.929L4.10444 302.042L4.10312 302.04C-1.08209 292.823 0.400851 281.183 7.80482 273.669L7.80839 273.665L26.2016 254.609C26.203 254.608 26.2044 254.607 26.2058 254.605C26.4733 254.34 26.7383 254.016 26.9827 253.717L26.9927 253.704L26.9942 253.703C27.2475 253.39 27.4826 253.103 27.7114 252.879L27.7321 252.858L27.7504 252.836L62.5356 209.757L62.5386 209.753C67.9396 202.932 69.4807 193.586 66.3944 185.254L66.3931 185.25L21.5276 66.6592L21.4886 66.5561L21.4306 66.4993C21.426 66.4912 21.4182 66.4767 21.4075 66.4538C21.3802 66.3958 21.3466 66.3112 21.3087 66.1996C21.2334 65.9777 21.1514 65.6789 21.0755 65.3355C20.923 64.6458 20.8042 63.8174 20.8042 63.1225C20.8042 61.4029 21.5048 59.9545 22.2258 58.9212C22.5849 58.4065 22.9442 58.002 23.2126 57.7273C23.3466 57.5901 23.4573 57.4859 23.5332 57.4171C23.5712 57.3827 23.6003 57.3572 23.6193 57.3409L23.6399 57.3234L23.6441 57.3199Z" fill="white" stroke="white"/>
</svg>
